<?xml version="1.0" encoding="UTF-8" standalone="no"?>
<!-- Created with Inkscape (http://www.inkscape.org/) -->

<svg
   xmlns:dc="http://purl.org/dc/elements/1.1/"
   xmlns:cc="http://creativecommons.org/ns#"
   xmlns:rdf="http://www.w3.org/1999/02/22-rdf-syntax-ns#"
   xmlns:svg="http://www.w3.org/2000/svg"
   xmlns="http://www.w3.org/2000/svg"
   xmlns:sodipodi="http://sodipodi.sourceforge.net/DTD/sodipodi-0.dtd"
   xmlns:inkscape="http://www.inkscape.org/namespaces/inkscape"
   width="60"
   height="72"
   viewBox="0 0 59.999999 72.000001"
   id="svg2"
   version="1.1"
   inkscape:version="0.91 r13725"
   sodipodi:docname="stibbons-logo-5-noir.svg"
   inkscape:export-filename="/home/kekun/Développement/stibbons/data/images/stibbons-2-48.png"
   inkscape:export-xdpi="90"
   inkscape:export-ydpi="90">
  <defs
     id="defs4" />
  <sodipodi:namedview
     id="base"
     pagecolor="#ffffff"
     bordercolor="#666666"
     borderopacity="1.0"
     inkscape:pageopacity="0.0"
     inkscape:pageshadow="2"
     inkscape:zoom="2.828427"
     inkscape:cx="20.279051"
     inkscape:cy="21.481153"
     inkscape:document-units="px"
     inkscape:current-layer="layer1"
     showgrid="false"
     units="px"
     inkscape:window-width="1280"
     inkscape:window-height="1373"
     inkscape:window-x="0"
     inkscape:window-y="27"
     inkscape:window-maximized="0"
     fit-margin-top="0"
     fit-margin-left="0"
     fit-margin-right="0"
     fit-margin-bottom="0" />
  <metadata
     id="metadata7">
    <rdf:RDF>
      <cc:Work
         rdf:about="">
        <dc:format>image/svg+xml</dc:format>
        <dc:type
           rdf:resource="http://purl.org/dc/dcmitype/StillImage" />
        <dc:title></dc:title>
      </cc:Work>
    </rdf:RDF>
  </metadata>
  <g
     inkscape:label="Calque 1"
     inkscape:groupmode="layer"
     id="layer1"
     transform="translate(0,-992.3622)">
    <rect
       style="opacity:1;fill:#000000;fill-opacity:1;stroke:none;stroke-width:24;stroke-linejoin:round;stroke-miterlimit:4;stroke-dasharray:none;stroke-opacity:1"
       id="rect3349"
       width="60"
       height="72"
       x="0"
       y="992.36218" />
    <rect
       style="fill:#77ee77;fill-opacity:1;fill-rule:nonzero;stroke:none;stroke-width:4;stroke-linecap:square;stroke-miterlimit:4;stroke-dasharray:none;stroke-opacity:1"
       id="rect4138"
       width="48"
       height="48"
       x="6"
       y="998.36218"
       ry="0" />
    <path
       style="fill:none;fill-rule:evenodd;stroke:#ffffff;stroke-width:8;stroke-linecap:square;stroke-linejoin:miter;stroke-miterlimit:4;stroke-dasharray:none;stroke-opacity:1"
       d="m 16,1036.3622 28,0 0,-14 -28,0 0,-14 24,0"
       id="path3336"
       inkscape:connector-curvature="0"
       sodipodi:nodetypes="cccccc" />
    <g
       id="g4153"
       transform="translate(14.0001,-5.999999)"
       style="fill:none;fill-opacity:0.68070176;stroke:#ffffff;stroke-opacity:1">
      <path
         sodipodi:nodetypes="cc"
         inkscape:connector-curvature="0"
         id="path4136"
         d="m 25.96875,1007.3622 0.03125,14"
         style="fill:none;fill-opacity:0.68070176;fill-rule:evenodd;stroke:#ffffff;stroke-width:2;stroke-linecap:round;stroke-linejoin:miter;stroke-miterlimit:4;stroke-dasharray:none;stroke-opacity:1" />
      <path
         style="fill:none;fill-opacity:0.68070176;fill-rule:evenodd;stroke:#ffffff;stroke-width:2;stroke-linecap:round;stroke-linejoin:miter;stroke-miterlimit:4;stroke-dasharray:none;stroke-opacity:1"
         d="m 20.5,1008.8622 11,11"
         id="path4149"
         inkscape:connector-curvature="0"
         sodipodi:nodetypes="cc" />
      <path
         sodipodi:nodetypes="cc"
         inkscape:connector-curvature="0"
         id="path4151"
         d="m 31.5,1008.8622 -11,11"
         style="fill:none;fill-opacity:0.68070176;fill-rule:evenodd;stroke:#ffffff;stroke-width:2;stroke-linecap:round;stroke-linejoin:miter;stroke-miterlimit:4;stroke-dasharray:none;stroke-opacity:1" />
    </g>
    <path
       inkscape:connector-curvature="0"
       style="fill:#ffffff;fill-opacity:1"
       d="m 46,1012.3622 0,-8 c 1.108333,0 2.052083,0.3896 2.831249,1.1688 0.779167,0.7791 1.168751,1.7229 1.168751,2.8312 0,1.1083 -0.389584,2.0521 -1.168751,2.8312 -0.779166,0.7792 -1.722916,1.1688 -2.831249,1.1688 z"
       id="path4-6"
       sodipodi:nodetypes="cccscc" />
    <g
       id="layer1-3"
       inkscape:label="Calque 1"
       transform="matrix(0.15894437,0,0,0.15894437,5.0463338,892.04882)"
       style="fill:#ffffff">
      <path
         inkscape:connector-curvature="0"
         id="rect3340"
         d="m 48,1010.3622 0,8 14,0 0,28 8,0 0,-28 14,0 0,-8 -14,0 -8,0 -14,0 z"
         style="opacity:1;fill:#ffffff;fill-opacity:1;stroke:none;stroke-width:24;stroke-linejoin:round;stroke-miterlimit:4;stroke-dasharray:none;stroke-opacity:1" />
      <rect
         style="opacity:1;fill:#ffffff;fill-opacity:1;stroke:none;stroke-width:24;stroke-linejoin:round;stroke-miterlimit:4;stroke-dasharray:none;stroke-opacity:1"
         id="rect4144"
         width="8"
         height="36"
         x="90"
         y="1010.3622" />
      <path
         inkscape:connector-curvature="0"
         id="rect4146"
         d="m 104,1010.3622 0,8 0,6 0,8 0,6 0,8 8,0 28,0 0,-8 0,-28 -28,0 -8,0 z m 8,8 20,0 0,6 -20,0 0,-6 z m 0,14 20,0 0,6 -20,0 0,-6 z"
         style="opacity:1;fill:#ffffff;fill-opacity:1;stroke:none;stroke-width:24;stroke-linejoin:round;stroke-miterlimit:4;stroke-dasharray:none;stroke-opacity:1" />
      <path
         inkscape:connector-curvature="0"
         id="rect4156"
         d="m 188,1010.3622 0,8 0,20 0,8 8,0 28,0 0,-8 0,-28 -28,0 -8,0 z m 8,8 20,0 0,20 -20,0 0,-20 z"
         style="opacity:1;fill:#ffffff;fill-opacity:1;stroke:none;stroke-width:24;stroke-linejoin:round;stroke-miterlimit:4;stroke-dasharray:none;stroke-opacity:1" />
      <path
         inkscape:connector-curvature="0"
         id="rect4166"
         d="m 230,1010.3622 0,6 0,30 8,0 0,-21.4277 20,21.4277 8,0 0,-36 -8,0 0,21.4277 -20,-21.4277 -8,0 z"
         style="opacity:1;fill:#ffffff;fill-opacity:1;stroke:none;stroke-width:24;stroke-linejoin:round;stroke-miterlimit:4;stroke-dasharray:none;stroke-opacity:1" />
      <path
         inkscape:connector-curvature="0"
         id="rect4174"
         d="m 272,1010.3622 0,8 0,6 0,8 8,0 20,0 0,6 -28,0 0,8 36,0 0,-8 0,-14 -28,0 0,-6 28,0 0,-8 -28,0 -8,0 z"
         style="opacity:1;fill:#ffffff;fill-opacity:1;stroke:none;stroke-width:24;stroke-linejoin:round;stroke-miterlimit:4;stroke-dasharray:none;stroke-opacity:1" />
      <path
         inkscape:connector-curvature="0"
         style="opacity:1;fill:#ffffff;fill-opacity:1;stroke:none;stroke-width:24;stroke-linejoin:round;stroke-miterlimit:4;stroke-dasharray:none;stroke-opacity:1"
         d="m 145.9,1010.3622 0,8 0,6 0,8 0,6 0,8 8,0 28,0 0,-8 0,-28 -28,0 -8,0 z m 8,8 20,0 0,6 -20,0 0,-6 z m 0,14 20,0 0,6 -20,0 0,-6 z"
         id="path3346" />
      <path
         style="opacity:1;fill:#ffffff;fill-opacity:1;stroke:none;stroke-width:24;stroke-linejoin:round;stroke-miterlimit:4;stroke-dasharray:none;stroke-opacity:1"
         d="m 6,1010.3622 0,8 0,6 0,8 8,0 20,0 0,6 -28,0 0,8 36,0 0,-8 0,-14 -28,0 0,-6 28,0 0,-8 -28,0 -8,0 z"
         id="path4186"
         inkscape:connector-curvature="0" />
    </g>
  </g>
</svg>
